<?xml version="1.0" encoding="UTF-8" standalone="no"?>
<!DOCTYPE svg PUBLIC "-//W3C//DTD SVG 1.1//EN" "http://www.w3.org/Graphics/SVG/1.1/DTD/svg11.dtd">
<svg width="100%" height="100%" viewBox="0 0 2481 3508" version="1.1" xmlns="http://www.w3.org/2000/svg" xmlns:xlink="http://www.w3.org/1999/xlink" xml:space="preserve" xmlns:serif="http://www.serif.com/" style="fill-rule:evenodd;clip-rule:evenodd;stroke-linejoin:round;stroke-miterlimit:2;">
    <g transform="matrix(0.96111,-0.276165,0.295108,1.02704,-403.33,297.243)">
        <path d="M1220.5,1966.13L1113.47,1966.13L1140.23,1636.56L1193.74,1636.56L1220.5,1966.13Z" style="fill:rgb(101,161,239);"/>
    </g>
    <g transform="matrix(-0.960576,-0.0260328,0.0408119,-1.5059,2428.82,4492.08)">
        <path d="M1297.61,1625.75L1362.14,1886.13L1233.08,1886.13L1297.61,1625.75Z" style="fill:rgb(7,109,187);"/>
    </g>
    <path d="M1268.9,598.473L2140.33,1020.88L1268.9,1443.28L397.476,1020.88L1268.9,598.473Z" style="fill:rgb(7,109,187);"/>
    <g transform="matrix(-0.00477719,0.881272,-1.1305,-0.00612818,2586.96,-520.223)">
        <path d="M1758.73,375.971L2230.03,1150.15L1287.43,1150.15L1758.73,375.971Z" style="fill:rgb(101,161,239);"/>
    </g>
    <g transform="matrix(1.10466,0.677181,-0.697638,1.13803,185.363,-1571.86)">
        <path d="M2163.77,1880.26L1400.95,1880.26L1591.66,1629.61L1973.07,1629.61L2163.77,1880.26Z" style="fill:rgb(7,109,187);"/>
    </g>
    <g transform="matrix(1.09072,-0.575418,0.620387,1.17596,-1434.1,625.397)">
        <path d="M2163.77,1880.26L1400.95,1880.26L1591.66,1629.61L1973.07,1629.61L2163.77,1880.26Z" style="fill:rgb(101,161,239);"/>
    </g>
    <g transform="matrix(0.99977,-0.0214351,0.0229054,1.06835,99.9401,-104.823)">
        <path d="M1220.5,1966.13L1113.47,1966.13L1140.23,1636.56L1193.74,1636.56L1220.5,1966.13Z" style="fill:rgb(101,161,239);"/>
    </g>
    <path d="M1198.09,1781.79L1152.97,1781.79L1164.25,1781.53L1186.81,1781.53L1198.09,1781.79Z" style="fill:rgb(101,161,239);"/>
    <path d="M1774.03,1756.22L1656.01,1756.22L1685.51,1754.76L1744.52,1754.76L1774.03,1756.22Z" style="fill:rgb(7,109,187);"/>
    <g transform="matrix(0.96111,-0.276165,0.295108,1.02704,-393.055,928.56)">
        <path d="M1220.5,1966.13L1113.47,1966.13L1140.23,1636.56L1193.74,1636.56L1220.5,1966.13Z" style="fill:rgb(101,161,239);"/>
    </g>
    <g transform="matrix(-0.960576,-0.0260328,0.0408119,-1.5059,2439.09,5123.4)">
        <path d="M1297.61,1625.75L1362.14,1886.13L1233.08,1886.13L1297.61,1625.75Z" style="fill:rgb(7,109,187);"/>
    </g>
    <g transform="matrix(1.10466,0.677181,-0.697638,1.13803,195.639,-940.545)">
        <path d="M2163.77,1880.26L1400.95,1880.26L1591.66,1629.61L1973.07,1629.61L2163.77,1880.26Z" style="fill:rgb(7,109,187);"/>
    </g>
    <g transform="matrix(1.09072,-0.575418,0.620387,1.17596,-1423.82,1256.71)">
        <path d="M2163.77,1880.26L1400.95,1880.26L1591.66,1629.61L1973.07,1629.61L2163.77,1880.26Z" style="fill:rgb(101,161,239);"/>
    </g>
    <g transform="matrix(0.99977,-0.0214351,0.0229054,1.06835,110.216,526.494)">
        <path d="M1220.5,1966.13L1113.47,1966.13L1140.23,1636.56L1193.74,1636.56L1220.5,1966.13Z" style="fill:rgb(101,161,239);"/>
    </g>
    <g transform="matrix(1,0,0,1,10.2755,631.317)">
        <path d="M1198.09,1781.79L1152.97,1781.79L1164.25,1781.53L1186.81,1781.53L1198.09,1781.79Z" style="fill:rgb(101,161,239);"/>
    </g>
    <g transform="matrix(1,0,0,1,10.2755,631.317)">
        <path d="M1774.03,1756.22L1656.01,1756.22L1685.51,1754.76L1744.52,1754.76L1774.03,1756.22Z" style="fill:rgb(7,109,187);"/>
    </g>
</svg>
