<?xml version="1.0" encoding="UTF-8" standalone="no"?>
<!DOCTYPE svg PUBLIC "-//W3C//DTD SVG 1.1//EN" "http://www.w3.org/Graphics/SVG/1.1/DTD/svg11.dtd">
<svg width="100%" height="100%" viewBox="0 0 768 524" version="1.1" xmlns="http://www.w3.org/2000/svg" xmlns:xlink="http://www.w3.org/1999/xlink" xml:space="preserve" xmlns:serif="http://www.serif.com/" style="fill-rule:evenodd;clip-rule:evenodd;stroke-linejoin:round;stroke-miterlimit:2;">
    <g id="path2" transform="matrix(1,0,0,1,5.49345,13.714)">
        <path d="M30,34L30,174L290,429L405,424L485,424L730,174L730,34L720,34L385,374L40,34L30,34Z" style="fill:rgb(60,75,90);"/>
    </g>
    <g id="g17">
    </g>
    <g id="path839">
    </g>
    <g id="path35" transform="matrix(1,0,0,1,5.49345,13.714)">
        <path d="M259,424L360,424L360,359L30,34L90,34L385,324L670,34L730,34L410,359L410,443.998C410,449 405,454 400,454L259,454C247,454 245,444 245,439C245,434 247,424 259,424Z" style="fill:rgb(177,47,53);"/>
    </g>
</svg>
