<?xml version="1.0" encoding="UTF-8" standalone="no"?>
<!DOCTYPE svg PUBLIC "-//W3C//DTD SVG 1.1//EN" "http://www.w3.org/Graphics/SVG/1.1/DTD/svg11.dtd">
<svg width="100%" height="100%" viewBox="0 0 152 152" version="1.1" xmlns="http://www.w3.org/2000/svg" xmlns:xlink="http://www.w3.org/1999/xlink" xml:space="preserve" xmlns:serif="http://www.serif.com/" style="fill-rule:evenodd;clip-rule:evenodd;stroke-linejoin:round;stroke-miterlimit:2;">
    <g transform="matrix(0.899834,0,0,0.923943,7.26062,3.04322)">
        <path d="M1,141.333C1.923,142.235 2.486,140.991 2.77,140.555C19.292,115.196 35.701,89.764 52.272,64.437C63.742,46.905 75.431,29.516 87.015,12.058C87.27,11.673 87.436,11.228 87.973,10.148C91.35,17.991 91.125,25.719 93.946,32.625C94.866,34.879 94.966,37.515 96.094,39.627C99.179,45.399 97.737,49.92 94.126,55.166C83.648,70.387 74.072,86.225 63.688,101.513C55.043,114.238 46.669,127.127 38.32,140.042C37.453,141.383 36.831,143.138 34.336,143.073C23.527,142.791 12.71,142.797 1.448,142.849C1,142.556 1,142.111 1,141.333Z" style="fill:rgb(213,31,38);fill-rule:nonzero;"/>
    </g>
    <g transform="matrix(0.923943,0,0,0.923943,4.69813,3.04322)">
        <path d="M153,125.6C151.667,124.97 151.538,126.322 151.006,126.975C148.935,129.518 146.766,132.399 145.73,135.158C142.835,142.873 137.345,143.495 130.484,143.093C123.366,142.677 116.204,142.891 109.066,143.047C105.86,143.118 105.725,141.827 107.155,139.668C114.634,128.373 122.128,117.088 129.725,105.872C131.09,103.857 132.527,103.173 134.68,105.779C139.904,112.1 146.159,117.427 152.749,122.311C153,123.067 153,124.133 153,125.6Z" style="fill:rgb(213,31,38);fill-rule:nonzero;"/>
    </g>
    <g transform="matrix(0.899834,0,0,0.923943,7.26062,3.04322)">
        <path d="M119.244,86.702C121.922,89.455 121.874,91.693 119.85,94.712C110.119,109.223 100.506,123.82 91.201,138.607C89.019,142.074 86.68,143.158 82.807,143.06C73.383,142.822 63.949,142.983 54.1,142.983C55.303,138.311 58.054,135.054 60.311,131.846C70.644,117.16 80.146,101.934 90.127,87.023C94.535,80.439 99.01,73.899 103.318,67.251C104.992,64.669 106.194,64.327 107.61,67.349C110.767,74.088 115.101,80.127 119.244,86.702Z" style="fill:rgb(209,32,38);fill-rule:nonzero;"/>
    </g>
</svg>
